# xmcd
#
# Track frame offsets: 
#        150
#        18421
#        43546
#        56446
#        70096
#        86071
#        110296
#        124696
#        139058
#        160020
#        175582
#
# Disc length: 2483 seconds
#
# Revision: 0
# Processed by: cddbd v1.5.2PL0 Copyright (c) Steve Scherf et al.
# Submitted via: ExactAudioCopy v1.0b4
#
DISCID=8509b10b
DTITLE=Blas Picon and The Blues Express - Askin' Out Loud
DYEAR=2013
DGENRE=Blues
TTITLE0=Askin' Out Loud
TTITLE1=Good Behavior
TTITLE2=A Look In Your Eyes
TTITLE3=Before You Kick Me Out
TTITLE4=I Gave You All
TTITLE5=My Baby's Arm
TTITLE6=Give Me A Clue
TTITLE7=My Only One Regret
TTITLE8=That's The Way I Feel
TTITLE9=Sweet Anna Lee
TTITLE10=Rage and Sorrow (A Song For Sergio)
EXTD=
EXTT0=
EXTT1=
EXTT2=
EXTT3=
EXTT4=
EXTT5=
EXTT6=
EXTT7=
EXTT8=
EXTT9=
EXTT10=
PLAYORDER=
